<?xml version="1.0" encoding="UTF-8" standalone="no"?>
<!DOCTYPE svg PUBLIC "-//W3C//DTD SVG 1.1//EN"
 "http://www.w3.org/Graphics/SVG/1.1/DTD/svg11.dtd">
<!-- Generated by graphviz version 2.43.0 (0)
 -->
<!-- Title: Mastermind11 Pages: 1 -->
<svg width="707pt" height="1081pt"
 viewBox="0.00 0.00 706.50 1080.82" xmlns="http://www.w3.org/2000/svg" xmlns:xlink="http://www.w3.org/1999/xlink">
<g id="graph0" class="graph" transform="scale(1 1) rotate(0) translate(4 1076.82)">
<title>Mastermind11</title>
<polygon fill="white" stroke="transparent" points="-4,4 -4,-1076.82 702.5,-1076.82 702.5,4 -4,4"/>
<text text-anchor="middle" x="349.25" y="-1054.42" font-family="Arial" font-size="18.00">mastermind&#45;11.sce &#45; Programmablauf</text>
<!-- start -->
<g id="node1" class="node">
<title>start</title>
<ellipse fill="none" stroke="black" cx="356" cy="-972.82" rx="84.5" ry="67.76"/>
<text text-anchor="middle" x="356" y="-1006.02" font-family="Arial" font-size="11.00">Start</text>
<text text-anchor="middle" x="356" y="-994.02" font-family="Arial" font-size="11.00">Vorbedingungen:</text>
<text text-anchor="middle" x="356" y="-982.02" font-family="Arial" font-size="11.00">M0=1</text>
<text text-anchor="middle" x="356" y="-970.02" font-family="Arial" font-size="11.00">M1=0 black</text>
<text text-anchor="middle" x="356" y="-958.02" font-family="Arial" font-size="11.00">M2=1 Position</text>
<text text-anchor="middle" x="356" y="-946.02" font-family="Arial" font-size="11.00">M8=codierter CODE</text>
<text text-anchor="middle" x="356" y="-934.02" font-family="Arial" font-size="11.00">M9=4 hit&#45;Vorrat</text>
</g>
<!-- input -->
<g id="node2" class="node">
<title>input</title>
<path fill="none" stroke="black" d="M428.5,-859.82C428.5,-859.82 283.5,-859.82 283.5,-859.82 277.5,-859.82 271.5,-853.82 271.5,-847.82 271.5,-847.82 271.5,-811.82 271.5,-811.82 271.5,-805.82 277.5,-799.82 283.5,-799.82 283.5,-799.82 428.5,-799.82 428.5,-799.82 434.5,-799.82 440.5,-805.82 440.5,-811.82 440.5,-811.82 440.5,-847.82 440.5,-847.82 440.5,-853.82 434.5,-859.82 428.5,-859.82"/>
<text text-anchor="middle" x="356" y="-845.02" font-family="Arial" font-size="11.00">Schritte 00..02</text>
<text text-anchor="middle" x="356" y="-833.02" font-family="Arial" font-size="11.00">R/S</text>
<text text-anchor="middle" x="356" y="-821.02" font-family="Arial" font-size="11.00">Guess&#45;Ziffer eingeben</text>
<text text-anchor="middle" x="356" y="-809.02" font-family="Arial" font-size="11.00">M4 = Guess&#45;Ziffer</text>
</g>
<!-- start&#45;&gt;input -->
<g id="edge5" class="edge">
<title>start&#45;&gt;input</title>
<path fill="none" stroke="black" d="M356,-904.63C356,-892.82 356,-880.88 356,-870.16"/>
<polygon fill="black" stroke="black" points="359.5,-869.88 356,-859.88 352.5,-869.88 359.5,-869.88"/>
</g>
<!-- steps -->
<g id="node13" class="node">
<title>steps</title>
<polygon fill="none" stroke="black" points="685.5,-1021.32 520.5,-1021.32 520.5,-924.32 691.5,-924.32 691.5,-1015.32 685.5,-1021.32"/>
<polyline fill="none" stroke="black" points="685.5,-1021.32 685.5,-1015.32 "/>
<polyline fill="none" stroke="black" points="691.5,-1015.32 685.5,-1015.32 "/>
<text text-anchor="middle" x="606" y="-1006.52" font-family="Arial" font-size="11.00">Programmlaenge</text>
<text text-anchor="middle" x="606" y="-994.52" font-family="Arial" font-size="11.00">69 Schritte belegt</text>
<text text-anchor="middle" x="606" y="-982.52" font-family="Arial" font-size="11.00">Adressen 00..68</text>
<text text-anchor="middle" x="606" y="-970.52" font-family="Arial" font-size="11.00">3 Schritte frei</text>
<text text-anchor="middle" x="606" y="-945.52" font-family="Arial" font-size="11.00">Keine Endanzeige im Programm</text>
<text text-anchor="middle" x="606" y="-933.52" font-family="Arial" font-size="11.00">white = M9 &#45; M1</text>
</g>
<!-- start&#45;&gt;steps -->
<g id="edge19" class="edge">
<title>start&#45;&gt;steps</title>
<path fill="none" stroke="black" stroke-dasharray="1,5" d="M440.51,-972.82C449.53,-972.82 507.65,-972.82 520.26,-972.82"/>
</g>
<!-- extract -->
<g id="node3" class="node">
<title>extract</title>
<path fill="none" stroke="black" d="M460,-758.82C460,-758.82 252,-758.82 252,-758.82 246,-758.82 240,-752.82 240,-746.82 240,-746.82 240,-648.82 240,-648.82 240,-642.82 246,-636.82 252,-636.82 252,-636.82 460,-636.82 460,-636.82 466,-636.82 472,-642.82 472,-648.82 472,-648.82 472,-746.82 472,-746.82 472,-752.82 466,-758.82 460,-758.82"/>
<text text-anchor="middle" x="356" y="-744.02" font-family="Arial" font-size="11.00">Schritte 03..33</text>
<text text-anchor="middle" x="356" y="-732.02" font-family="Arial" font-size="11.00">CODE&#45;Position holen</text>
<text text-anchor="middle" x="356" y="-707.02" font-family="Arial" font-size="11.00">Codierung: Stelle 10^d = Position von Ziffer d</text>
<text text-anchor="middle" x="356" y="-695.02" font-family="Arial" font-size="11.00">q = floor(M8 / 10^M4)</text>
<text text-anchor="middle" x="356" y="-683.02" font-family="Arial" font-size="11.00">M7 = q &#45; 10 * floor(q / 10)</text>
<text text-anchor="middle" x="356" y="-658.02" font-family="Arial" font-size="11.00">M4 = Guess&#45;Ziffer</text>
<text text-anchor="middle" x="356" y="-646.02" font-family="Arial" font-size="11.00">M7 = CODE&#45;Position dieser Ziffer</text>
</g>
<!-- input&#45;&gt;extract -->
<g id="edge6" class="edge">
<title>input&#45;&gt;extract</title>
<path fill="none" stroke="black" d="M356,-799.65C356,-790.52 356,-780.01 356,-769.3"/>
<polygon fill="black" stroke="black" points="359.5,-769.02 356,-759.02 352.5,-769.02 359.5,-769.02"/>
</g>
<!-- hit_test -->
<g id="node4" class="node">
<title>hit_test</title>
<path fill="none" stroke="black" d="M345.57,-589.9C345.57,-589.9 281.93,-553.75 281.93,-553.75 276.72,-550.79 276.72,-544.86 281.93,-541.9 281.93,-541.9 345.57,-505.75 345.57,-505.75 350.78,-502.79 361.22,-502.79 366.43,-505.75 366.43,-505.75 430.07,-541.9 430.07,-541.9 435.28,-544.86 435.28,-550.79 430.07,-553.75 430.07,-553.75 366.43,-589.9 366.43,-589.9 361.22,-592.86 350.78,-592.86 345.57,-589.9"/>
<text text-anchor="middle" x="356" y="-557.02" font-family="Arial" font-size="11.00">Schritte 34..38</text>
<text text-anchor="middle" x="356" y="-545.02" font-family="Arial" font-size="11.00">Miss&#45;Test</text>
<text text-anchor="middle" x="356" y="-533.02" font-family="Arial" font-size="11.00">M7 == 0?</text>
</g>
<!-- extract&#45;&gt;hit_test -->
<g id="edge7" class="edge">
<title>extract&#45;&gt;hit_test</title>
<path fill="none" stroke="black" d="M356,-636.63C356,-626.65 356,-616.32 356,-606.41"/>
<polygon fill="black" stroke="black" points="359.5,-606.26 356,-596.26 352.5,-606.26 359.5,-606.26"/>
</g>
<!-- hit_add -->
<g id="node5" class="node">
<title>hit_add</title>
<path fill="none" stroke="black" d="M686.5,-577.82C686.5,-577.82 541.5,-577.82 541.5,-577.82 535.5,-577.82 529.5,-571.82 529.5,-565.82 529.5,-565.82 529.5,-529.82 529.5,-529.82 529.5,-523.82 535.5,-517.82 541.5,-517.82 541.5,-517.82 686.5,-517.82 686.5,-517.82 692.5,-517.82 698.5,-523.82 698.5,-529.82 698.5,-529.82 698.5,-565.82 698.5,-565.82 698.5,-571.82 692.5,-577.82 686.5,-577.82"/>
<text text-anchor="middle" x="614" y="-563.02" font-family="Arial" font-size="11.00">Schritte 39..42</text>
<text text-anchor="middle" x="614" y="-551.02" font-family="Arial" font-size="11.00">wenn M7 == 0:</text>
<text text-anchor="middle" x="614" y="-539.02" font-family="Arial" font-size="11.00">M9 = M9 &#45; 1</text>
<text text-anchor="middle" x="614" y="-527.02" font-family="Arial" font-size="11.00">sonst: M9 = M9 &#45; 0</text>
</g>
<!-- hit_test&#45;&gt;hit_add -->
<g id="edge8" class="edge">
<title>hit_test&#45;&gt;hit_add</title>
<path fill="none" stroke="black" d="M440.84,-547.82C465.86,-547.82 493.41,-547.82 519.02,-547.82"/>
<polygon fill="black" stroke="black" points="519.11,-551.32 529.11,-547.82 519.11,-544.32 519.11,-551.32"/>
<text text-anchor="middle" x="485" y="-553.82" font-family="Arial" font-size="10.00">ja</text>
</g>
<!-- black_test -->
<g id="node6" class="node">
<title>black_test</title>
<path fill="none" stroke="black" d="M345.31,-443.37C345.31,-443.37 272.69,-406.28 272.69,-406.28 267.34,-403.55 267.34,-398.09 272.69,-395.37 272.69,-395.37 345.31,-358.28 345.31,-358.28 350.66,-355.55 361.34,-355.55 366.69,-358.28 366.69,-358.28 439.31,-395.37 439.31,-395.37 444.66,-398.09 444.66,-403.55 439.31,-406.28 439.31,-406.28 366.69,-443.37 366.69,-443.37 361.34,-446.09 350.66,-446.09 345.31,-443.37"/>
<text text-anchor="middle" x="356" y="-410.02" font-family="Arial" font-size="11.00">Schritte 43..51</text>
<text text-anchor="middle" x="356" y="-398.02" font-family="Arial" font-size="11.00">Vergleich + SKP</text>
<text text-anchor="middle" x="356" y="-386.02" font-family="Arial" font-size="11.00">M7 == M2?</text>
</g>
<!-- hit_test&#45;&gt;black_test -->
<g id="edge9" class="edge">
<title>hit_test&#45;&gt;black_test</title>
<path fill="none" stroke="black" d="M356,-499.75C356,-486.83 356,-472.68 356,-459.26"/>
<polygon fill="black" stroke="black" points="359.5,-459.16 356,-449.16 352.5,-459.16 359.5,-459.16"/>
<text text-anchor="middle" x="365.5" y="-471.82" font-family="Arial" font-size="10.00">nein</text>
</g>
<!-- hit_add&#45;&gt;black_test -->
<g id="edge10" class="edge">
<title>hit_add&#45;&gt;black_test</title>
<path fill="none" stroke="black" d="M562.1,-517.65C517.63,-492.66 453.86,-456.82 409.07,-431.65"/>
<polygon fill="black" stroke="black" points="410.52,-428.45 400.09,-426.6 407.09,-434.55 410.52,-428.45"/>
</g>
<!-- black_add -->
<g id="node7" class="node">
<title>black_add</title>
<path fill="none" stroke="black" d="M686.5,-430.82C686.5,-430.82 541.5,-430.82 541.5,-430.82 535.5,-430.82 529.5,-424.82 529.5,-418.82 529.5,-418.82 529.5,-382.82 529.5,-382.82 529.5,-376.82 535.5,-370.82 541.5,-370.82 541.5,-370.82 686.5,-370.82 686.5,-370.82 692.5,-370.82 698.5,-376.82 698.5,-382.82 698.5,-382.82 698.5,-418.82 698.5,-418.82 698.5,-424.82 692.5,-430.82 686.5,-430.82"/>
<text text-anchor="middle" x="614" y="-416.02" font-family="Arial" font-size="11.00">Schritte 52..55</text>
<text text-anchor="middle" x="614" y="-404.02" font-family="Arial" font-size="11.00">nur wenn gleich</text>
<text text-anchor="middle" x="614" y="-392.02" font-family="Arial" font-size="11.00">M1 = M1 + 1</text>
<text text-anchor="middle" x="614" y="-380.02" font-family="Arial" font-size="11.00">black</text>
</g>
<!-- hit_add&#45;&gt;black_add -->
<!-- black_test&#45;&gt;black_add -->
<g id="edge11" class="edge">
<title>black_test&#45;&gt;black_add</title>
<path fill="none" stroke="black" d="M450.24,-400.82C472.71,-400.82 496.7,-400.82 519.19,-400.82"/>
<polygon fill="black" stroke="black" points="519.41,-404.32 529.41,-400.82 519.41,-397.32 519.41,-404.32"/>
<text text-anchor="middle" x="489.75" y="-406.82" font-family="Arial" font-size="10.00">ja</text>
</g>
<!-- next_pos -->
<g id="node8" class="node">
<title>next_pos</title>
<path fill="none" stroke="black" d="M428.5,-301.82C428.5,-301.82 283.5,-301.82 283.5,-301.82 277.5,-301.82 271.5,-295.82 271.5,-289.82 271.5,-289.82 271.5,-259.82 271.5,-259.82 271.5,-253.82 277.5,-247.82 283.5,-247.82 283.5,-247.82 428.5,-247.82 428.5,-247.82 434.5,-247.82 440.5,-253.82 440.5,-259.82 440.5,-259.82 440.5,-289.82 440.5,-289.82 440.5,-295.82 434.5,-301.82 428.5,-301.82"/>
<text text-anchor="middle" x="356" y="-278.02" font-family="Arial" font-size="11.00">Schritte 56..58</text>
<text text-anchor="middle" x="356" y="-266.02" font-family="Arial" font-size="11.00">M2 = M2 + 1</text>
</g>
<!-- black_test&#45;&gt;next_pos -->
<g id="edge12" class="edge">
<title>black_test&#45;&gt;next_pos</title>
<path fill="none" stroke="black" d="M356,-352.59C356,-339.22 356,-324.88 356,-312.26"/>
<polygon fill="black" stroke="black" points="359.5,-312.11 356,-302.11 352.5,-312.11 359.5,-312.11"/>
<text text-anchor="middle" x="365.5" y="-324.82" font-family="Arial" font-size="10.00">nein</text>
</g>
<!-- black_add&#45;&gt;next_pos -->
<g id="edge13" class="edge">
<title>black_add&#45;&gt;next_pos</title>
<path fill="none" stroke="black" d="M553.51,-370.75C513.22,-351.38 460.36,-325.98 419.47,-306.33"/>
<polygon fill="black" stroke="black" points="420.93,-303.15 410.4,-301.97 417.9,-309.46 420.93,-303.15"/>
</g>
<!-- blank3 -->
<!-- black_add&#45;&gt;blank3 -->
<!-- done_test -->
<g id="node9" class="node">
<title>done_test</title>
<path fill="none" stroke="black" d="M344.57,-203.17C344.57,-203.17 282.93,-183.48 282.93,-183.48 277.22,-181.65 277.22,-178 282.93,-176.17 282.93,-176.17 344.57,-156.48 344.57,-156.48 350.28,-154.65 361.72,-154.65 367.43,-156.48 367.43,-156.48 429.07,-176.17 429.07,-176.17 434.78,-178 434.78,-181.65 429.07,-183.48 429.07,-183.48 367.43,-203.17 367.43,-203.17 361.72,-205 350.28,-205 344.57,-203.17"/>
<text text-anchor="middle" x="356" y="-183.02" font-family="Arial" font-size="11.00">Schritte 59..64</text>
<text text-anchor="middle" x="356" y="-171.02" font-family="Arial" font-size="11.00">M2 == 5?</text>
</g>
<!-- next_pos&#45;&gt;done_test -->
<g id="edge14" class="edge">
<title>next_pos&#45;&gt;done_test</title>
<path fill="none" stroke="black" d="M356,-247.42C356,-238.02 356,-227.25 356,-217.16"/>
<polygon fill="black" stroke="black" points="359.5,-216.97 356,-206.97 352.5,-216.97 359.5,-216.97"/>
</g>
<!-- stop -->
<g id="node10" class="node">
<title>stop</title>
<ellipse fill="none" stroke="black" cx="614" cy="-50.91" rx="84.5" ry="50.82"/>
<text text-anchor="middle" x="614" y="-72.11" font-family="Arial" font-size="11.00">Schritt 65</text>
<text text-anchor="middle" x="614" y="-60.11" font-family="Arial" font-size="11.00">Stop bei R/S</text>
<text text-anchor="middle" x="614" y="-48.11" font-family="Arial" font-size="11.00">Ergebnis:</text>
<text text-anchor="middle" x="614" y="-36.11" font-family="Arial" font-size="11.00">black = M1</text>
<text text-anchor="middle" x="614" y="-24.11" font-family="Arial" font-size="11.00">white = M9 &#45; M1</text>
</g>
<!-- done_test&#45;&gt;stop -->
<g id="edge15" class="edge">
<title>done_test&#45;&gt;stop</title>
<path fill="none" stroke="black" d="M388.15,-163.01C425.92,-144.43 489.79,-113.01 539.99,-88.32"/>
<polygon fill="black" stroke="black" points="541.77,-91.34 549.2,-83.79 538.68,-85.06 541.77,-91.34"/>
<text text-anchor="middle" x="473" y="-124.82" font-family="Arial" font-size="10.00">ja</text>
</g>
<!-- loop -->
<g id="node11" class="node">
<title>loop</title>
<path fill="none" stroke="black" d="M428.5,-77.91C428.5,-77.91 283.5,-77.91 283.5,-77.91 277.5,-77.91 271.5,-71.91 271.5,-65.91 271.5,-65.91 271.5,-35.91 271.5,-35.91 271.5,-29.91 277.5,-23.91 283.5,-23.91 283.5,-23.91 428.5,-23.91 428.5,-23.91 434.5,-23.91 440.5,-29.91 440.5,-35.91 440.5,-35.91 440.5,-65.91 440.5,-65.91 440.5,-71.91 434.5,-77.91 428.5,-77.91"/>
<text text-anchor="middle" x="356" y="-54.11" font-family="Arial" font-size="11.00">Schritte 66..68</text>
<text text-anchor="middle" x="356" y="-42.11" font-family="Arial" font-size="11.00">GOTO 0 0</text>
</g>
<!-- done_test&#45;&gt;loop -->
<g id="edge16" class="edge">
<title>done_test&#45;&gt;loop</title>
<path fill="none" stroke="black" d="M356,-152.53C356,-133.98 356,-108.89 356,-88.41"/>
<polygon fill="black" stroke="black" points="359.5,-88.17 356,-78.17 352.5,-88.17 359.5,-88.17"/>
<text text-anchor="middle" x="365.5" y="-124.82" font-family="Arial" font-size="10.00">nein</text>
</g>
<!-- loop&#45;&gt;input -->
<g id="edge17" class="edge">
<title>loop&#45;&gt;input</title>
<path fill="none" stroke="black" d="M319.33,-78.21C267.48,-115.38 179,-178.82 179,-178.82 179,-698.82 179,-698.82 179,-698.82 179,-698.82 220,-758.82 220,-758.82 220,-758.82 255.51,-777.1 290.24,-794.98"/>
<polygon fill="black" stroke="black" points="289.01,-798.28 299.51,-799.75 292.22,-792.06 289.01,-798.28"/>
</g>
<!-- memory -->
<g id="node12" class="node">
<title>memory</title>
<polygon fill="none" stroke="black" points="186,-1044.82 0,-1044.82 0,-900.82 192,-900.82 192,-1038.82 186,-1044.82"/>
<polyline fill="none" stroke="black" points="186,-1044.82 186,-1038.82 "/>
<polyline fill="none" stroke="black" points="192,-1038.82 186,-1038.82 "/>
<text text-anchor="middle" x="96" y="-1030.02" font-family="Arial" font-size="11.00">Speicherbelegung</text>
<text text-anchor="middle" x="96" y="-1018.02" font-family="Arial" font-size="11.00">M0 = Konstante 1</text>
<text text-anchor="middle" x="96" y="-1006.02" font-family="Arial" font-size="11.00">M1 = black</text>
<text text-anchor="middle" x="96" y="-994.02" font-family="Arial" font-size="11.00">M2 = aktuelle Position 1..4, danach 5</text>
<text text-anchor="middle" x="96" y="-982.02" font-family="Arial" font-size="11.00">M3 = frei</text>
<text text-anchor="middle" x="96" y="-970.02" font-family="Arial" font-size="11.00">M4 = aktuelle Guess&#45;Ziffer</text>
<text text-anchor="middle" x="96" y="-958.02" font-family="Arial" font-size="11.00">M5 = frei</text>
<text text-anchor="middle" x="96" y="-946.02" font-family="Arial" font-size="11.00">M6 = frei</text>
<text text-anchor="middle" x="96" y="-934.02" font-family="Arial" font-size="11.00">M7 = extrahierte CODE&#45;Position</text>
<text text-anchor="middle" x="96" y="-922.02" font-family="Arial" font-size="11.00">M8 = codierter CODE</text>
<text text-anchor="middle" x="96" y="-910.02" font-family="Arial" font-size="11.00">M9 = hit, startet bei 4</text>
</g>
<!-- memory&#45;&gt;start -->
<g id="edge18" class="edge">
<title>memory&#45;&gt;start</title>
<path fill="none" stroke="black" stroke-dasharray="1,5" d="M192.27,-972.82C214.84,-972.82 269.33,-972.82 269.33,-972.82 269.33,-972.82 270.1,-972.82 271.48,-972.82"/>
</g>
<!-- blank4 -->
<!-- blank3&#45;&gt;blank4 -->
<!-- blank4&#45;&gt;stop -->
</g>
</svg>
