<svg xmlns="http://www.w3.org/2000/svg" viewBox="0 0 461 126" role="img" aria-label="Santron">
  <path fill="#f3f7f4" d="M269 8H278V9H269ZM266 9H280V10H266ZM265 10H281V11H265ZM264 11H281V12H264ZM263 12H282V13H263ZM65 13H108V14H65ZM262 13H282V14H262ZM59 14H110V15H59ZM262 14H282V15H262ZM54 15H110V16H54ZM261 15H282V16H261ZM50 16H110V17H50ZM261 16H282V17H261ZM46 17H111V18H46ZM261 17H281V18H261ZM44 18H111V19H44ZM260 18H281V19H260ZM43 19H111V20H43ZM260 19H281V20H260ZM41 20H111V21H41ZM259 20H280V21H259ZM40 21H111V22H40ZM259 21H280V22H259ZM39 22H110V23H39ZM259 22H280V23H259ZM37 23H110V24H37ZM258 23H280V24H258ZM36 24H110V25H36ZM258 24H280V25H258ZM35 25H109V26H35ZM257 25H280V26H257ZM34 26H109V27H34ZM257 26H280V27H257ZM33 27H109V28H33ZM256 27H281V28H256ZM33 28H108V29H33ZM255 28H282V29H255ZM287 28H290V29H287ZM32 29H108V30H32ZM252 29H291V30H252ZM31 30H55V31H31ZM62 30H108V31H62ZM238 30H292V31H238ZM30 31H51V32H30ZM73 31H107V32H73ZM237 31H292V32H237ZM30 32H49V33H30ZM77 32H107V33H77ZM236 32H292V33H236ZM29 33H49V34H29ZM80 33H107V34H80ZM236 33H292V34H236ZM29 34H48V35H29ZM83 34H106V35H83ZM235 34H292V35H235ZM28 35H48V36H28ZM86 35H106V36H86ZM235 35H292V36H235ZM28 36H48V37H28ZM88 36H105V37H88ZM234 36H291V37H234ZM27 37H49V38H27ZM89 37H105V38H89ZM234 37H291V38H234ZM27 38H49V39H27ZM90 38H105V39H90ZM234 38H290V39H234ZM26 39H50V40H26ZM92 39H104V40H92ZM234 39H290V40H234ZM26 40H51V41H26ZM94 40H104V41H94ZM234 40H289V41H234ZM25 41H52V42H25ZM96 41H103V42H96ZM235 41H280V42H235ZM281 41H287V42H281ZM25 42H54V43H25ZM97 42H102V43H97ZM236 42H243V43H236ZM249 42H276V43H249ZM25 43H55V44H25ZM250 43H275V44H250ZM25 44H57V45H25ZM251 44H273V45H251ZM25 45H58V46H25ZM251 45H273V46H251ZM24 46H60V47H24ZM251 46H272V47H251ZM24 47H62V48H24ZM251 47H272V48H251ZM24 48H63V49H24ZM250 48H272V49H250ZM24 49H65V50H24ZM250 49H272V50H250ZM375 49H382V50H375ZM410 49H423V50H410ZM437 49H444V50H437ZM24 50H66V51H24ZM249 50H271V51H249ZM359 50H388V51H359ZM408 50H426V51H408ZM432 50H447V51H432ZM25 51H68V52H25ZM249 51H271V52H249ZM292 51H305V52H292ZM315 51H331V52H315ZM354 51H390V52H354ZM407 51H448V52H407ZM25 52H69V53H25ZM249 52H271V53H249ZM290 52H309V53H290ZM310 52H333V53H310ZM352 52H392V53H352ZM405 52H449V53H405ZM25 53H70V54H25ZM182 53H196V54H182ZM212 53H214V54H212ZM249 53H270V54H249ZM289 53H334V54H289ZM351 53H393V54H351ZM405 53H451V54H405ZM25 54H71V55H25ZM127 54H139V55H127ZM153 54H164V55H153ZM181 54H198V55H181ZM208 54H222V55H208ZM249 54H270V55H249ZM288 54H335V55H288ZM349 54H394V55H349ZM404 54H451V55H404ZM25 55H72V56H25ZM124 55H143V56H124ZM149 55H165V56H149ZM180 55H200V56H180ZM205 55H224V56H205ZM249 55H269V56H249ZM288 55H336V56H288ZM348 55H395V56H348ZM404 55H452V56H404ZM26 56H74V57H26ZM121 56H166V57H121ZM179 56H225V57H179ZM248 56H269V57H248ZM287 56H336V57H287ZM347 56H395V57H347ZM403 56H452V57H403ZM26 57H76V58H26ZM119 57H167V58H119ZM178 57H226V58H178ZM248 57H269V58H248ZM287 57H336V58H287ZM347 57H395V58H347ZM403 57H452V58H403ZM27 58H77V59H27ZM117 58H167V59H117ZM178 58H227V59H178ZM248 58H268V59H248ZM286 58H337V59H286ZM346 58H396V59H346ZM403 58H452V59H403ZM27 59H78V60H27ZM116 59H167V60H116ZM177 59H228V60H177ZM247 59H268V60H247ZM286 59H337V60H286ZM345 59H396V60H345ZM402 59H453V60H402ZM28 60H79V61H28ZM115 60H167V61H115ZM177 60H228V61H177ZM247 60H268V61H247ZM285 60H337V61H285ZM345 60H396V61H345ZM402 60H453V61H402ZM28 61H80V62H28ZM114 61H167V62H114ZM176 61H228V62H176ZM247 61H268V62H247ZM285 61H337V62H285ZM344 61H396V62H344ZM402 61H453V62H402ZM29 62H81V63H29ZM113 62H166V63H113ZM176 62H228V63H176ZM246 62H267V63H246ZM285 62H337V63H285ZM344 62H367V63H344ZM374 62H396V63H374ZM402 62H425V63H402ZM429 62H453V63H429ZM30 63H82V64H30ZM112 63H166V64H112ZM176 63H229V64H176ZM246 63H267V64H246ZM284 63H312V64H284ZM314 63H336V64H314ZM344 63H365V64H344ZM374 63H396V64H374ZM401 63H424V64H401ZM430 63H453V64H430ZM31 64H83V65H31ZM112 64H166V65H112ZM176 64H229V65H176ZM246 64H267V65H246ZM284 64H308V65H284ZM316 64H336V65H316ZM343 64H364V65H343ZM375 64H396V65H375ZM401 64H423V65H401ZM431 64H453V65H431ZM32 65H84V66H32ZM111 65H165V66H111ZM176 65H229V66H176ZM245 65H266V66H245ZM284 65H307V66H284ZM317 65H336V66H317ZM343 65H363V66H343ZM375 65H396V66H375ZM401 65H422V66H401ZM431 65H453V66H431ZM33 66H85V67H33ZM111 66H133V67H111ZM136 66H165V67H136ZM175 66H229V67H175ZM245 66H266V67H245ZM283 66H306V67H283ZM317 66H336V67H317ZM343 66H363V67H343ZM375 66H396V67H375ZM400 66H421V67H400ZM431 66H452V67H431ZM34 67H86V68H34ZM110 67H131V68H110ZM138 67H165V68H138ZM175 67H229V68H175ZM245 67H266V68H245ZM283 67H305V68H283ZM317 67H336V68H317ZM342 67H362V68H342ZM375 67H395V68H375ZM400 67H421V68H400ZM431 67H452V68H431ZM35 68H86V69H35ZM109 68H130V69H109ZM139 68H164V69H139ZM175 68H202V69H175ZM205 68H229V69H205ZM245 68H265V69H245ZM283 68H304V69H283ZM317 68H336V69H317ZM342 68H362V69H342ZM374 68H395V69H374ZM400 68H420V69H400ZM431 68H452V69H431ZM36 69H87V70H36ZM109 69H130V70H109ZM140 69H164V70H140ZM174 69H199V70H174ZM206 69H229V70H206ZM244 69H265V70H244ZM283 69H304V70H283ZM317 69H336V70H317ZM342 69H361V70H342ZM374 69H395V70H374ZM400 69H420V70H400ZM431 69H452V70H431ZM37 70H88V71H37ZM109 70H129V71H109ZM140 70H164V71H140ZM174 70H198V71H174ZM207 70H229V71H207ZM244 70H265V71H244ZM282 70H303V71H282ZM317 70H335V71H317ZM341 70H361V71H341ZM374 70H395V71H374ZM399 70H419V71H399ZM431 70H452V71H431ZM38 71H88V72H38ZM108 71H129V72H108ZM141 71H163V72H141ZM173 71H197V72H173ZM207 71H229V72H207ZM244 71H264V72H244ZM282 71H303V72H282ZM316 71H335V72H316ZM341 71H361V72H341ZM374 71H395V72H374ZM399 71H419V72H399ZM431 71H451V72H431ZM40 72H89V73H40ZM108 72H128V73H108ZM141 72H163V73H141ZM173 72H196V73H173ZM207 72H228V73H207ZM243 72H264V73H243ZM281 72H302V73H281ZM316 72H335V73H316ZM341 72H360V73H341ZM373 72H394V73H373ZM399 72H419V73H399ZM430 72H451V73H430ZM41 73H90V74H41ZM108 73H128V74H108ZM141 73H163V74H141ZM173 73H195V74H173ZM207 73H228V74H207ZM243 73H264V74H243ZM281 73H302V74H281ZM316 73H335V74H316ZM341 73H360V74H341ZM373 73H394V74H373ZM398 73H419V74H398ZM430 73H451V74H430ZM42 74H90V75H42ZM108 74H128V75H108ZM141 74H162V75H141ZM172 74H195V75H172ZM207 74H228V75H207ZM243 74H264V75H243ZM281 74H302V75H281ZM315 74H334V75H315ZM340 74H360V75H340ZM373 74H393V75H373ZM398 74H418V75H398ZM429 74H451V75H429ZM43 75H91V76H43ZM107 75H127V76H107ZM141 75H162V76H141ZM172 75H194V76H172ZM206 75H228V76H206ZM242 75H263V76H242ZM280 75H301V76H280ZM315 75H334V76H315ZM340 75H360V76H340ZM372 75H392V76H372ZM397 75H418V76H397ZM429 75H450V76H429ZM45 76H91V77H45ZM107 76H127V77H107ZM141 76H162V77H141ZM172 76H194V77H172ZM206 76H228V77H206ZM242 76H263V77H242ZM280 76H301V77H280ZM315 76H333V77H315ZM340 76H360V77H340ZM372 76H392V77H372ZM397 76H417V77H397ZM429 76H450V77H429ZM46 77H91V78H46ZM106 77H127V78H106ZM140 77H161V78H140ZM172 77H193V78H172ZM206 77H228V78H206ZM241 77H262V78H241ZM280 77H301V78H280ZM314 77H333V78H314ZM339 77H359V78H339ZM372 77H392V78H372ZM397 77H417V78H397ZM428 77H449V78H428ZM48 78H92V79H48ZM106 78H126V79H106ZM140 78H161V79H140ZM171 78H193V79H171ZM206 78H228V79H206ZM241 78H262V79H241ZM279 78H300V79H279ZM314 78H332V79H314ZM339 78H359V79H339ZM371 78H392V79H371ZM397 78H417V79H397ZM428 78H449V79H428ZM50 79H92V80H50ZM105 79H126V80H105ZM140 79H160V80H140ZM171 79H192V80H171ZM205 79H227V80H205ZM241 79H262V80H241ZM279 79H300V80H279ZM314 79H332V80H314ZM339 79H359V80H339ZM371 79H391V80H371ZM396 79H417V80H396ZM428 79H448V80H428ZM51 80H92V81H51ZM105 80H125V81H105ZM139 80H160V81H139ZM171 80H192V81H171ZM205 80H227V81H205ZM240 80H261V81H240ZM279 80H300V81H279ZM314 80H331V81H314ZM338 80H358V81H338ZM371 80H391V81H371ZM396 80H416V81H396ZM428 80H448V81H428ZM52 81H92V82H52ZM105 81H125V82H105ZM139 81H160V82H139ZM171 81H192V82H171ZM204 81H227V82H204ZM240 81H261V82H240ZM279 81H299V82H279ZM315 81H331V82H315ZM338 81H358V82H338ZM370 81H391V82H370ZM396 81H416V82H396ZM428 81H448V82H428ZM53 82H92V83H53ZM104 82H125V83H104ZM139 82H159V83H139ZM170 82H192V83H170ZM204 82H227V83H204ZM240 82H261V83H240ZM278 82H299V83H278ZM315 82H330V83H315ZM337 82H357V83H337ZM370 82H391V83H370ZM395 82H416V83H395ZM427 82H447V83H427ZM55 83H92V84H55ZM104 83H124V84H104ZM138 83H159V84H138ZM170 83H191V84H170ZM204 83H226V84H204ZM239 83H261V84H239ZM278 83H299V84H278ZM317 83H322V84H317ZM324 83H328V84H324ZM337 83H357V84H337ZM369 83H390V84H369ZM395 83H415V84H395ZM427 83H447V84H427ZM57 84H92V85H57ZM104 84H124V85H104ZM138 84H159V85H138ZM169 84H191V85H169ZM204 84H226V85H204ZM239 84H260V85H239ZM277 84H298V85H277ZM337 84H357V85H337ZM369 84H390V85H369ZM394 84H415V85H394ZM427 84H447V85H427ZM59 85H92V86H59ZM104 85H124V86H104ZM137 85H159V86H137ZM169 85H191V86H169ZM203 85H225V86H203ZM239 85H260V86H239ZM277 85H298V86H277ZM336 85H356V86H336ZM369 85H389V86H369ZM394 85H414V86H394ZM426 85H446V86H426ZM60 86H92V87H60ZM104 86H124V87H104ZM137 86H158V87H137ZM169 86H191V87H169ZM203 86H225V87H203ZM238 86H259V87H238ZM277 86H297V87H277ZM336 86H356V87H336ZM368 86H389V87H368ZM394 86H414V87H394ZM426 86H446V87H426ZM62 87H92V88H62ZM103 87H123V88H103ZM137 87H158V88H137ZM168 87H190V88H168ZM203 87H224V88H203ZM238 87H259V88H238ZM276 87H297V88H276ZM336 87H356V88H336ZM368 87H389V88H368ZM393 87H413V88H393ZM426 87H445V88H426ZM64 88H92V89H64ZM103 88H123V89H103ZM137 88H158V89H137ZM168 88H190V89H168ZM202 88H224V89H202ZM237 88H259V89H237ZM276 88H296V89H276ZM335 88H356V89H335ZM368 88H388V89H368ZM393 88H413V89H393ZM425 88H445V89H425ZM65 89H92V90H65ZM102 89H123V90H102ZM136 89H157V90H136ZM168 89H189V90H168ZM202 89H224V90H202ZM237 89H258V90H237ZM276 89H296V90H276ZM335 89H355V90H335ZM368 89H388V90H368ZM393 89H413V90H393ZM425 89H445V90H425ZM66 90H92V91H66ZM102 90H122V91H102ZM136 90H157V91H136ZM167 90H189V91H167ZM201 90H224V91H201ZM237 90H258V91H237ZM276 90H296V91H276ZM335 90H355V91H335ZM367 90H388V91H367ZM392 90H413V91H392ZM425 90H444V91H425ZM66 91H91V92H66ZM102 91H122V92H102ZM136 91H157V92H136ZM167 91H189V92H167ZM201 91H223V92H201ZM237 91H258V92H237ZM275 91H296V92H275ZM334 91H355V92H334ZM367 91H388V92H367ZM392 91H412V92H392ZM424 91H444V92H424ZM66 92H91V93H66ZM101 92H122V93H101ZM136 92H156V93H136ZM167 92H188V93H167ZM201 92H223V93H201ZM236 92H257V93H236ZM275 92H295V93H275ZM334 92H355V93H334ZM367 92H388V93H367ZM392 92H412V93H392ZM424 92H444V93H424ZM66 93H91V94H66ZM101 93H121V94H101ZM135 93H156V94H135ZM166 93H188V94H166ZM200 93H223V94H200ZM236 93H257V94H236ZM274 93H295V94H274ZM334 93H354V94H334ZM366 93H387V94H366ZM392 93H412V94H392ZM424 93H444V94H424ZM66 94H90V95H66ZM101 94H121V95H101ZM135 94H156V95H135ZM166 94H188V95H166ZM200 94H223V95H200ZM236 94H257V95H236ZM274 94H295V95H274ZM333 94H354V95H333ZM366 94H387V95H366ZM391 94H411V95H391ZM424 94H443V95H424ZM65 95H90V96H65ZM100 95H121V96H100ZM135 95H156V96H135ZM165 95H188V96H165ZM200 95H222V96H200ZM235 95H257V96H235ZM273 95H294V96H273ZM333 95H354V96H333ZM365 95H386V96H365ZM391 95H411V96H391ZM423 95H443V96H423ZM64 96H90V97H64ZM100 96H121V97H100ZM134 96H155V97H134ZM165 96H187V97H165ZM200 96H222V97H200ZM235 96H257V97H235ZM273 96H294V97H273ZM333 96H354V97H333ZM364 96H386V97H364ZM391 96H411V97H391ZM423 96H443V97H423ZM63 97H89V98H63ZM100 97H121V98H100ZM134 97H155V98H134ZM165 97H187V98H165ZM199 97H222V98H199ZM234 97H257V98H234ZM272 97H294V98H272ZM333 97H355V98H333ZM363 97H385V98H363ZM390 97H411V98H390ZM423 97H442V98H423ZM52 98H54V99H52ZM60 98H89V99H60ZM100 98H121V99H100ZM133 98H155V99H133ZM164 98H187V99H164ZM199 98H222V99H199ZM233 98H258V99H233ZM271 98H293V99H271ZM333 98H357V99H333ZM362 98H384V99H362ZM390 98H410V99H390ZM423 98H442V99H423ZM14 99H88V100H14ZM100 99H122V100H100ZM132 99H155V100H132ZM164 99H186V100H164ZM199 99H223V100H199ZM232 99H260V100H232ZM270 99H293V100H270ZM333 99H384V100H333ZM389 99H410V100H389ZM422 99H441V100H422ZM13 100H88V101H13ZM100 100H125V101H100ZM131 100H155V101H131ZM163 100H186V101H163ZM198 100H224V101H198ZM230 100H293V101H230ZM333 100H383V101H333ZM389 100H409V101H389ZM422 100H441V101H422ZM12 101H87V102H12ZM100 101H155V102H100ZM163 101H185V102H163ZM198 101H292V102H198ZM333 101H383V102H333ZM389 101H409V102H389ZM421 101H440V102H421ZM11 102H86V103H11ZM100 102H156V103H100ZM162 102H185V103H162ZM198 102H292V103H198ZM333 102H382V103H333ZM389 102H408V103H389ZM421 102H440V103H421ZM11 103H86V104H11ZM100 103H184V104H100ZM198 103H292V104H198ZM334 103H381V104H334ZM388 103H408V104H388ZM421 103H440V104H421ZM11 104H85V105H11ZM100 104H184V105H100ZM198 104H291V105H198ZM334 104H380V105H334ZM388 104H408V105H388ZM421 104H439V105H421ZM10 105H84V106H10ZM100 105H184V106H100ZM198 105H291V106H198ZM335 105H379V106H335ZM388 105H407V106H388ZM421 105H438V106H421ZM10 106H83V107H10ZM100 106H183V107H100ZM198 106H291V107H198ZM336 106H378V107H336ZM388 106H407V107H388ZM421 106H437V107H421ZM9 107H82V108H9ZM100 107H183V108H100ZM198 107H290V108H198ZM337 107H377V108H337ZM388 107H406V108H388ZM422 107H436V108H422ZM9 108H81V109H9ZM101 108H183V109H101ZM199 108H289V109H199ZM339 108H376V109H339ZM388 108H404V109H388ZM9 109H81V110H9ZM101 109H182V110H101ZM199 109H288V110H199ZM341 109H374V110H341ZM389 109H401V110H389ZM8 110H80V111H8ZM102 110H181V111H102ZM200 110H287V111H200ZM349 110H353V111H349ZM356 110H360V111H356ZM365 110H370V111H365ZM390 110H393V111H390ZM8 111H78V112H8ZM103 111H180V112H103ZM201 111H285V112H201ZM8 112H76V113H8ZM104 112H128V113H104ZM133 112H179V113H133ZM202 112H253V113H202ZM8 113H75V114H8ZM105 113H125V114H105ZM134 113H178V114H134ZM204 113H219V114H204ZM8 114H72V115H8ZM107 114H122V115H107ZM136 114H168V115H136ZM173 114H176V115H173ZM9 115H67V116H9ZM9 116H53V117H9ZM58 116H62V117H58ZM10 117H15V118H10ZM23 117H46V118H23Z"/>
</svg>
